<?xml version="1.0" standalone="no"?>
<!DOCTYPE svg PUBLIC "-//W3C//DTD SVG 20010904//EN"
 "http://www.w3.org/TR/2001/REC-SVG-20010904/DTD/svg10.dtd">
<svg version="1.0" xmlns="http://www.w3.org/2000/svg"
 width="134.000000pt" height="134.000000pt" viewBox="0 0 134.000000 134.000000"
 preserveAspectRatio="xMidYMid meet">
<metadata>
Created by potrace 1.11, written by Peter Selinger 2001-2013
</metadata>
<g transform="translate(0.000000,134.000000) scale(0.100000,-0.100000)"
fill="#000000" stroke="none">
<path d="M42 1056 c-7 -12 -9 -495 -2 -506 5 -8 64 -13 118 -11 21 1 22 4 22
96 l0 95 70 0 c66 0 70 1 71 23 2 57 0 107 -5 115 -3 5 -35 8 -71 6 -63 -3
-65 -2 -65 22 0 24 1 24 95 24 l95 0 0 73 0 72 -161 0 c-92 0 -163 -4 -167 -9z"/>
<path d="M423 1057 c-4 -7 -7 -334 -4 -479 l1 -38 70 0 70 0 0 263 0 262 -66
0 c-36 1 -68 -3 -71 -8z"/>
<path d="M610 1003 l0 -62 165 0 165 0 0 44 c0 70 -22 79 -192 80 l-138 1 0
-63z"/>
<path d="M1000 1062 c-5 -2 -10 -34 -10 -74 l0 -70 33 2 c67 4 62 18 62 -187
l0 -188 73 -3 72 -3 0 191 0 190 45 0 c49 0 47 -5 47 85 0 25 -1 48 -1 53 -1
7 -300 11 -321 4z"/>
<path d="M607 704 c1 -86 4 -158 5 -160 2 -2 66 -4 142 -5 134 -1 140 0 163
23 22 22 24 31 24 138 0 63 0 124 0 136 -1 19 -7 21 -61 21 l-60 0 0 -101 0
-101 -40 0 c-22 0 -41 5 -41 10 -1 6 -3 44 -4 85 -1 41 -3 82 -4 91 -1 12 -15
16 -63 17 l-63 1 2 -155z"/>
<path d="M24 340 c-1 -20 3 -30 13 -30 8 0 11 5 8 10 -3 6 1 10 9 10 19 0 22
20 4 21 -7 0 -4 4 7 9 17 7 16 9 -10 9 -27 1 -30 -2 -31 -29z"/>
<path d="M85 350 c-9 -28 6 -43 36 -38 18 2 24 9 24 28 0 34 -50 42 -60 10z
m40 -20 c-5 -8 -11 -8 -17 -2 -6 6 -7 16 -3 22 5 8 11 8 17 2 6 -6 7 -16 3
-22z"/>
<path d="M167 363 c-14 -13 -7 -42 12 -52 14 -8 22 -7 32 6 12 14 11 15 -9 8
-20 -6 -23 -4 -20 12 2 11 11 17 22 15 11 -2 15 1 11 7 -7 12 -38 15 -48 4z"/>
<path d="M230 341 c0 -31 29 -48 49 -28 14 14 14 57 1 57 -5 0 -10 -12 -10
-26 0 -14 -4 -23 -10 -19 -5 3 -10 15 -10 26 0 10 -4 19 -10 19 -5 0 -10 -13
-10 -29z"/>
<path d="M305 359 c-8 -12 -8 -11 20 -28 19 -11 19 -12 -2 -6 -13 4 -23 2 -23
-3 0 -17 39 -20 52 -4 10 11 10 16 1 19 -7 2 -9 11 -6 19 6 17 -32 20 -42 3z"/>
<path d="M397 351 c-6 -24 3 -38 27 -43 22 -4 42 23 33 46 -9 23 -53 21 -60
-3z m40 -28 c-3 -3 -11 -2 -17 2 -8 5 -7 11 2 22 12 15 13 14 16 -1 2 -10 1
-20 -1 -23z"/>
<path d="M472 340 c-2 -32 14 -42 21 -12 4 16 5 16 6 0 1 -22 27 -24 35 -3 7
19 -3 47 -15 39 -5 -3 -7 -11 -3 -17 3 -7 -1 -4 -9 6 -21 25 -32 21 -35 -13z"/>
<path d="M578 345 c-7 -34 7 -41 33 -16 23 21 18 41 -10 41 -12 0 -20 -9 -23
-25z"/>
<path d="M642 337 c2 -18 6 -31 11 -29 4 1 23 2 43 2 21 0 33 4 29 10 -3 6 -1
10 4 10 6 0 11 -4 11 -10 0 -13 52 -9 66 5 5 5 13 18 17 28 5 14 1 17 -23 17
-24 0 -29 -4 -27 -19 1 -11 -2 -19 -8 -18 -5 1 -8 10 -7 19 3 14 -7 16 -58 17
l-61 0 3 -32z m63 2 c0 -8 -11 -15 -25 -16 -16 -1 -18 0 -7 4 11 3 16 11 13
20 -4 9 -1 13 6 11 7 -3 13 -11 13 -19z m105 11 c0 -5 -2 -10 -4 -10 -3 0 -8
5 -11 10 -3 6 -1 10 4 10 6 0 11 -4 11 -10z"/>
<path d="M836 355 c-14 -39 36 -69 55 -33 6 11 8 26 5 34 -7 19 -52 18 -60 -1z
m42 -16 c-2 -6 -8 -10 -13 -10 -5 0 -11 4 -13 10 -2 6 4 11 13 11 9 0 15 -5
13 -11z"/>
<path d="M910 341 c0 -31 14 -42 23 -18 4 10 6 10 6 0 2 -27 27 -12 26 15 -1
21 -7 28 -28 30 -24 3 -27 0 -27 -27z"/>
<path d="M980 340 c0 -26 4 -30 26 -30 14 0 23 4 19 9 -3 5 0 13 6 17 7 4 9 3
6 -2 -3 -6 -2 -16 4 -24 6 -11 9 -4 9 23 0 39 -24 54 -33 20 -4 -17 -5 -17 -6
0 -2 31 -31 20 -31 -13z"/>
<path d="M1070 344 c-6 -14 -10 -27 -10 -28 0 -1 14 -3 30 -3 29 0 41 19 20
32 -6 4 -8 11 -5 16 4 5 -1 9 -10 9 -8 0 -20 -12 -25 -26z"/>
<path d="M1132 340 c-1 -16 2 -30 8 -30 5 0 10 5 10 12 0 9 3 9 12 0 17 -17
39 -15 32 3 -4 8 -1 15 5 15 6 0 11 -6 11 -14 0 -21 26 -26 47 -10 17 15 17
15 -4 11 -13 -3 -24 1 -27 9 -4 10 2 14 20 14 14 0 22 4 19 10 -9 14 -52 12
-59 -2 -5 -10 -7 -10 -12 0 -3 6 -10 12 -15 12 -6 0 -7 -4 -4 -10 3 -5 1 -10
-4 -10 -6 0 -11 5 -11 10 0 25 -26 7 -28 -20z"/>
<path d="M1280 338 c0 -28 3 -33 25 -33 14 0 25 3 25 8 0 4 -8 7 -17 7 -15 0
-14 2 3 15 19 14 19 14 -1 15 l-20 1 20 9 c18 8 17 9 -7 9 -25 1 -28 -3 -28
-31z"/>
</g>
</svg>
