<svg width="190" height="35" viewBox="0 0 190 35" fill="none" xmlns="http://www.w3.org/2000/svg">
<path d="M9 0H189V2H9V0Z" fill="#FF914D"/>
<path d="M1 33H181V35H1V33Z" fill="#FF914D"/>
<path fill-rule="evenodd" clip-rule="evenodd" d="M3 27.0579L0.995144 35L0 34.9421L2.00486 27L3 27.0579Z" fill="#FF914D"/>
<path fill-rule="evenodd" clip-rule="evenodd" d="M190 0.0579201L187.995 8L187 7.94208L189.005 0L190 0.0579201Z" fill="#FF914D"/>
<path d="M10.0649 24H6.48828L9.56445 6.22656H13.1411L10.0649 24Z" fill="white"/>
<path d="M18.6831 10.7798L18.3901 12.3423C19.4481 11.1134 20.7298 10.5153 22.2354 10.5479C23.4805 10.5723 24.4001 11.028 24.9941 11.915C25.5882 12.8021 25.8039 14.0309 25.6411 15.6016L24.2495 24H20.8071L22.2231 15.5649C22.2638 15.2476 22.272 14.9587 22.2476 14.6982C22.1418 13.8682 21.6209 13.4409 20.6851 13.4165C19.7817 13.384 18.972 13.8031 18.2559 14.6738L16.6079 24H13.1655L15.4604 10.792L18.6831 10.7798Z" fill="white"/>
<path d="M32.5137 19.6421L36.2734 10.792H39.9844L33.6001 24H30.3042L28.0459 10.792H31.5371L32.5137 19.6421Z" fill="white"/>
<path d="M45.4409 24.2441C44.2853 24.236 43.2599 23.9552 42.3647 23.4019C41.4777 22.8403 40.8145 22.0754 40.375 21.1069C39.9355 20.1304 39.7646 19.0562 39.8623 17.8843L39.8989 17.396C40.021 16.1102 40.3953 14.9302 41.022 13.856C41.6486 12.7817 42.4543 11.9557 43.439 11.3779C44.4237 10.792 45.5142 10.5153 46.7104 10.5479C48.4113 10.5804 49.6971 11.207 50.5679 12.4277C51.4468 13.6403 51.7804 15.1784 51.5688 17.042L51.3735 18.5435H43.2803C43.2477 19.3979 43.4552 20.0815 43.9028 20.5942C44.3504 21.1069 44.9608 21.3714 45.7339 21.3877C46.9871 21.4202 48.0858 20.936 49.0298 19.9351L50.6045 21.8882C50.1081 22.6369 49.3919 23.2228 48.4561 23.646C47.5202 24.061 46.5151 24.2604 45.4409 24.2441ZM46.5396 13.3921C45.9048 13.3758 45.3392 13.5752 44.8428 13.9902C44.3545 14.4053 43.915 15.1255 43.5244 16.1509H48.2607L48.334 15.8335C48.3828 15.508 48.3869 15.1987 48.3462 14.9058C48.2648 14.4338 48.0654 14.0675 47.748 13.8071C47.4307 13.5386 47.0278 13.4002 46.5396 13.3921Z" fill="white"/>
<path d="M60.0527 20.2769C60.1829 19.6258 59.7313 19.1538 58.6978 18.8608L57.5869 18.5801C54.9583 17.8558 53.6807 16.5781 53.7539 14.7471C53.7946 13.502 54.3439 12.4888 55.4019 11.7075C56.4679 10.9181 57.7497 10.5316 59.2471 10.5479C60.7363 10.5641 61.9408 10.9588 62.8604 11.7319C63.7799 12.505 64.2479 13.5345 64.2642 14.8203L60.8462 14.8081C60.8625 13.6769 60.3009 13.1032 59.1616 13.0869C58.6245 13.0869 58.1566 13.2212 57.7578 13.4897C57.3672 13.7583 57.1271 14.1204 57.0376 14.5762C56.9155 15.2272 57.4079 15.687 58.5146 15.9556L59.0029 16.0654C60.126 16.334 60.9845 16.6432 61.5786 16.9932C62.1727 17.335 62.6284 17.7622 62.9458 18.2749C63.2713 18.7876 63.4219 19.402 63.3975 20.1182C63.373 20.9564 63.1004 21.6888 62.5796 22.3154C62.0669 22.9421 61.3589 23.4263 60.4556 23.7681C59.5604 24.1099 58.6164 24.2686 57.6235 24.2441C56.1587 24.2279 54.938 23.8088 53.9614 22.9868C52.9849 22.1567 52.4884 21.0866 52.4722 19.7764L55.7192 19.8008C55.7518 21.0622 56.4272 21.701 57.7456 21.7173C58.3804 21.7173 58.9012 21.5871 59.3081 21.3267C59.7231 21.0662 59.9714 20.7163 60.0527 20.2769Z" fill="white"/>
<path d="M71.979 7.54492L71.4053 10.792H73.6025L73.1509 13.3799H70.9536L69.8306 19.9961C69.7817 20.4111 69.8143 20.7285 69.9282 20.9482C70.0422 21.168 70.3188 21.286 70.7583 21.3022C70.8885 21.3104 71.2384 21.29 71.8081 21.2412L71.564 23.939C70.9536 24.1424 70.2944 24.236 69.5864 24.2197C68.4552 24.2035 67.613 23.8494 67.0596 23.1577C66.5062 22.466 66.2783 21.5301 66.376 20.3501L67.5112 13.3799H65.6436L66.0952 10.792H67.9629L68.5244 7.54492H71.979Z" fill="white"/>
<path d="M78.8149 10.7798L78.5342 12.2812C79.6003 11.0931 80.8901 10.5153 82.4038 10.5479C83.2176 10.5641 83.8931 10.7513 84.4302 11.1094C84.9673 11.4674 85.3294 11.9517 85.5166 12.562C86.6803 11.1867 88.0475 10.5153 89.6182 10.5479C90.8307 10.5723 91.7422 10.9873 92.3525 11.793C92.971 12.5986 93.2314 13.7624 93.1338 15.2842L93.1094 15.5894L91.7056 24H88.251L89.6548 15.5649C89.6873 15.2638 89.6995 14.9831 89.6914 14.7227C89.6344 13.8682 89.1462 13.4287 88.2266 13.4043C87.2826 13.4043 86.4728 13.9089 85.7974 14.918L85.7607 15.1987L84.2227 24H80.7803L82.1841 15.5894C82.2166 15.2882 82.2288 15.0075 82.2207 14.7471C82.1637 13.8844 81.6795 13.4409 80.7681 13.4165C79.8973 13.3921 79.112 13.8031 78.4121 14.6494L76.7642 24H73.3218L75.6045 10.792L78.8149 10.7798Z" fill="white"/>
<path d="M100.714 24.2441C99.5588 24.236 98.5334 23.9552 97.6382 23.4019C96.7511 22.8403 96.0879 22.0754 95.6484 21.1069C95.209 20.1304 95.0381 19.0562 95.1357 17.8843L95.1724 17.396C95.2944 16.1102 95.6688 14.9302 96.2954 13.856C96.922 12.7817 97.7277 11.9557 98.7124 11.3779C99.6971 10.792 100.788 10.5153 101.984 10.5479C103.685 10.5804 104.971 11.207 105.841 12.4277C106.72 13.6403 107.054 15.1784 106.842 17.042L106.647 18.5435H98.5537C98.5212 19.3979 98.7287 20.0815 99.1763 20.5942C99.6239 21.1069 100.234 21.3714 101.007 21.3877C102.261 21.4202 103.359 20.936 104.303 19.9351L105.878 21.8882C105.382 22.6369 104.665 23.2228 103.729 23.646C102.794 24.061 101.789 24.2604 100.714 24.2441ZM101.813 13.3921C101.178 13.3758 100.613 13.5752 100.116 13.9902C99.6279 14.4053 99.1885 15.1255 98.7979 16.1509H103.534L103.607 15.8335C103.656 15.508 103.66 15.1987 103.62 14.9058C103.538 14.4338 103.339 14.0675 103.021 13.8071C102.704 13.5386 102.301 13.4002 101.813 13.3921Z" fill="white"/>
<path d="M113.117 10.7798L112.824 12.3423C113.882 11.1134 115.163 10.5153 116.669 10.5479C117.914 10.5723 118.834 11.028 119.428 11.915C120.022 12.8021 120.237 14.0309 120.075 15.6016L118.683 24H115.241L116.657 15.5649C116.697 15.2476 116.706 14.9587 116.681 14.6982C116.575 13.8682 116.055 13.4409 115.119 13.4165C114.215 13.384 113.406 13.8031 112.689 14.6738L111.042 24H107.599L109.894 10.792L113.117 10.7798Z" fill="white"/>
<path d="M128.375 7.54492L127.802 10.792H129.999L129.547 13.3799H127.35L126.227 19.9961C126.178 20.4111 126.211 20.7285 126.325 20.9482C126.439 21.168 126.715 21.286 127.155 21.3022C127.285 21.3104 127.635 21.29 128.205 21.2412L127.96 23.939C127.35 24.1424 126.691 24.236 125.983 24.2197C124.852 24.2035 124.009 23.8494 123.456 23.1577C122.903 22.466 122.675 21.5301 122.772 20.3501L123.908 13.3799H122.04L122.492 10.792H124.359L124.921 7.54492H128.375Z" fill="white"/>
<path d="M148.59 17.4326C148.346 19.516 147.711 21.1842 146.686 22.4375C145.661 23.6908 144.334 24.297 142.707 24.2563C141.315 24.2238 140.257 23.6623 139.533 22.5718L139.032 24H135.895L139.142 5.25H142.597L141.266 12.0005C142.194 10.9995 143.268 10.5153 144.489 10.5479C145.766 10.5641 146.767 11.0239 147.492 11.9272C148.224 12.8224 148.615 14.0635 148.664 15.6504C148.68 16.1549 148.655 16.749 148.59 17.4326ZM145.172 17.1763C145.246 16.4845 145.27 15.9474 145.246 15.5649C145.156 14.1489 144.57 13.4287 143.488 13.4043C142.471 13.3717 141.628 13.8315 140.961 14.7837L140.009 20.0327C140.318 20.9116 140.977 21.3673 141.986 21.3999C143.679 21.4487 144.717 20.2199 145.099 17.7134L145.172 17.1763Z" fill="white"/>
<path d="M153.302 24H149.835L153.095 5.25H156.549L153.302 24Z" fill="white"/>
<path d="M163.788 10.5479C164.952 10.5641 165.953 10.8652 166.791 11.4512C167.637 12.029 168.256 12.8306 168.646 13.856C169.045 14.8732 169.188 16.0044 169.074 17.2495C168.887 19.3491 168.154 21.05 166.876 22.3521C165.607 23.646 164.036 24.2767 162.165 24.2441C161.017 24.2279 160.024 23.9349 159.186 23.3652C158.348 22.7874 157.729 21.9899 157.331 20.9727C156.932 19.9554 156.789 18.8324 156.903 17.6035C157.115 15.4225 157.855 13.6891 159.125 12.4033C160.395 11.1175 161.949 10.499 163.788 10.5479ZM160.309 18.8608C160.325 19.6421 160.508 20.2606 160.858 20.7163C161.208 21.1639 161.701 21.3958 162.335 21.4121C163.393 21.4447 164.223 20.9604 164.826 19.9595C165.428 18.9504 165.709 17.6279 165.668 15.9922C165.635 15.2109 165.444 14.5884 165.094 14.1245C164.752 13.6525 164.26 13.4084 163.617 13.3921C162.592 13.3595 161.77 13.8438 161.151 14.8447C160.541 15.8376 160.26 17.1763 160.309 18.8608Z" fill="white"/>
<path d="M170.734 17.3838C170.978 15.3411 171.641 13.6851 172.724 12.4155C173.814 11.1379 175.185 10.5112 176.837 10.5356C178.245 10.5682 179.295 11.0768 179.987 12.0615L180.438 10.7798L183.6 10.792L181.439 23.5483C181.203 25.3062 180.455 26.6978 179.193 27.7231C177.932 28.7485 176.369 29.245 174.506 29.2124C173.594 29.1961 172.724 28.9967 171.894 28.6143C171.063 28.2399 170.38 27.7231 169.843 27.064L171.552 24.9644C172.317 25.9328 173.277 26.4333 174.433 26.4658C175.328 26.4984 176.093 26.2624 176.728 25.7578C177.362 25.2614 177.794 24.5575 178.021 23.646L178.217 22.8525C177.257 23.8128 176.178 24.2767 174.982 24.2441C173.696 24.2279 172.675 23.7518 171.918 22.8159C171.161 21.8719 170.746 20.6471 170.673 19.1416C170.648 18.6452 170.669 18.0592 170.734 17.3838ZM174.115 18.8242C174.115 19.5892 174.274 20.2036 174.591 20.6675C174.917 21.1232 175.385 21.3633 175.995 21.3877C176.931 21.4202 177.761 21.0215 178.485 20.1914L179.511 14.6006C179.161 13.8356 178.514 13.4368 177.57 13.4043C176.691 13.3799 175.946 13.7339 175.336 14.4663C174.726 15.1987 174.343 16.1712 174.188 17.3838C174.132 17.9779 174.107 18.458 174.115 18.8242Z" fill="white"/>
</svg>
